<?xml version="1.0" standalone="no"?>
<!DOCTYPE svg PUBLIC "-//W3C//DTD SVG 20010904//EN"
 "http://www.w3.org/TR/2001/REC-SVG-20010904/DTD/svg10.dtd">
<svg version="1.0" xmlns="http://www.w3.org/2000/svg"
 width="512.000000pt" height="512.000000pt" viewBox="0 0 512.000000 512.000000"
 preserveAspectRatio="xMidYMid meet">
<metadata>
Created by potrace 1.14, written by Peter Selinger 2001-2017
</metadata>
<g transform="translate(0.000000,512.000000) scale(0.100000,-0.100000)"
fill="#000000" stroke="none">
<path d="M2260 4058 c0 -233 0 -448 0 -479 l0 -56 -67 14 c-99 21 -382 20
-445 -2 -7 -2 -29 -6 -48 -9 -19 -3 -66 -15 -104 -27 -484 -149 -749 -586
-693 -1144 23 -233 105 -422 242 -560 85 -85 96 -94 184 -143 126 -72 311
-130 466 -147 33 -4 71 -9 85 -11 30 -5 392 -5 435 1 17 2 66 6 111 9 44 4 89
8 100 10 10 2 44 7 74 10 30 4 66 8 80 11 14 2 65 11 114 19 49 9 92 18 95 22
3 3 6 658 7 1455 l0 1449 -318 0 -318 0 0 -422z m-66 -1023 c32 -8 60 -16 62
-18 7 -6 5 -999 -1 -1005 -19 -20 -262 -23 -347 -5 -228 47 -351 204 -363 463
-4 78 8 204 22 240 3 8 7 21 9 28 1 8 15 39 30 69 31 64 102 139 166 177 99
58 292 81 422 51z"/>
<path d="M3270 4153 l0 -323 317 2 318 3 0 320 0 320 -317 1 -318 0 0 -323z"/>
<path d="M3269 2743 c-1 -423 -2 -795 -4 -828 -19 -347 -52 -485 -158 -648
-81 -125 -240 -257 -390 -322 l-65 -29 157 -74 c154 -73 201 -95 354 -166 l78
-37 69 35 c108 54 179 105 265 191 188 188 264 363 310 710 14 106 18 345 20
1080 1 457 -1 836 -3 843 -3 9 -76 12 -318 12 l-314 0 -1 -767z"/>
</g>
</svg>
